<svg xmlns="http://www.w3.org/2000/svg"  viewBox="0 0 24 24" width="72px" height="72px"><path d="M 3.5 4.0136719 C 2.675 4.0136719 2 4.6886719 2 5.5136719 L 2 18.513672 C 2 19.338672 2.675 20.013672 3.5 20.013672 L 20.5 20.013672 C 21.325 20.013672 22 19.338672 22 18.513672 L 22 5.5136719 C 22 4.6886719 21.325 4.0136719 20.5 4.0136719 L 3.5 4.0136719 z M 3.5 5.0136719 L 20.5 5.0136719 C 20.771 5.0136719 21 5.2426719 21 5.5136719 L 21 18.513672 C 21 18.784672 20.771 19.013672 20.5 19.013672 L 3.5 19.013672 C 3.229 19.013672 3 18.784672 3 18.513672 L 3 5.5136719 C 3 5.2426719 3.229 5.0136719 3.5 5.0136719 z M 5.5 10 L 4 14 L 4.9003906 14 L 5.1992188 13.099609 L 6.9003906 13.099609 L 7.1992188 14 L 8.9003906 14 L 8.9003906 11 L 10 14 L 10.800781 14 L 11.900391 11.099609 L 11.900391 14 L 12.699219 14 L 12.699219 10 L 11.400391 10 L 10.400391 12.699219 L 9.4003906 10 L 8 10 L 8 13.800781 L 6.5996094 10 L 5.5 10 z M 13.800781 10 L 13.800781 14 L 17 14 L 18 12.699219 L 19 14 L 20 14 L 18.5 12 L 20 10 L 18.900391 10 L 17.900391 11.199219 L 17.099609 10 L 13.800781 10 z M 6 10.800781 L 6.5 12.199219 L 5.5 12.199219 L 6 10.800781 z M 14.599609 10.900391 L 16.599609 10.900391 L 17.400391 12 L 16.5 13.199219 L 14.599609 13.199219 L 14.599609 12.400391 L 16.400391 12.400391 L 16.400391 11.599609 L 14.599609 11.599609 L 14.599609 10.900391 z"/></svg>