<svg xmlns="http://www.w3.org/2000/svg"  viewBox="0 0 80 80" width="80px" height="80px"><path d="M 11 16 C 8.25 16 6 18.25 6 21 L 6 59 C 6 61.75 8.25 64 11 64 L 69 64 C 71.75 64 74 61.75 74 59 L 74 21 C 74 18.25 71.75 16 69 16 Z M 11 18 L 69 18 C 70.667969 18 72 19.332031 72 21 L 72 59 C 72 60.667969 70.667969 62 69 62 L 11 62 C 9.332031 62 8 60.667969 8 59 L 8 21 C 8 19.332031 9.332031 18 11 18 Z M 30 24 C 21.175781 24 14 31.175781 14 40 C 14 48.824219 21.175781 56 30 56 C 33.800781 56 37.257813 54.617188 40 52.402344 C 42.742188 54.617188 46.199219 56 50 56 C 58.824219 56 66 48.824219 66 40 C 66 31.175781 58.824219 24 50 24 C 46.199219 24 42.742188 25.382813 40 27.597656 C 37.257813 25.382813 33.800781 24 30 24 Z M 30 26 C 33.515625 26 36.707031 27.308594 39.167969 29.449219 C 39.058594 29.613281 39 29.804688 39 30 C 39 30.550781 39.449219 31 40 31 C 40.550781 31 41 30.550781 41 30 C 41 29.804688 40.941406 29.613281 40.832031 29.449219 C 41.457031 28.90625 42.132813 28.417969 42.84375 27.988281 C 42.894531 27.996094 42.949219 28 43 28 C 43.394531 28 43.75 27.765625 43.910156 27.40625 C 45.367188 26.695313 46.960938 26.230469 48.644531 26.066406 C 48.257813 26.214844 48 26.585938 48 27 C 48 27.550781 48.449219 28 49 28 C 49.550781 28 50 27.550781 50 27 C 50 26.546875 49.695313 26.152344 49.257813 26.035156 C 49.503906 26.023438 49.75 26 50 26 C 51.421875 26 52.789063 26.21875 54.078125 26.609375 C 54.027344 26.734375 54 26.867188 54 27 C 54 27.550781 54.449219 28 55 28 C 55.425781 28 55.800781 27.730469 55.941406 27.328125 C 58.25 28.414063 60.207031 30.109375 61.613281 32.214844 C 61.441406 32.074219 61.222656 32 61 32 C 60.449219 32 60 32.449219 60 33 C 60 33.550781 60.449219 34 61 34 C 61.550781 34 62 33.550781 62 33 C 62 32.925781 61.992188 32.851563 61.972656 32.777344 C 62.46875 33.597656 62.890625 34.46875 63.207031 35.390625 C 63.074219 35.5625 63 35.777344 63 36 C 63 36.417969 63.261719 36.792969 63.65625 36.9375 C 63.875 37.925781 64 38.945313 64 40 C 64 40.339844 63.972656 40.671875 63.949219 41.003906 C 63.417969 41.03125 63 41.46875 63 42 C 63 42.429688 63.277344 42.8125 63.6875 42.949219 C 62.539063 48.320313 58.320313 52.539063 52.949219 53.6875 C 52.8125 53.277344 52.429688 53 52 53 C 51.46875 53 51.027344 53.417969 51 53.949219 C 50.667969 53.972656 50.339844 54 50 54 C 48.941406 54 47.921875 53.871094 46.933594 53.644531 C 46.785156 53.257813 46.414063 53 46 53 C 45.78125 53 45.570313 53.070313 45.394531 53.203125 C 44.476563 52.878906 43.59375 52.472656 42.769531 51.972656 C 42.847656 51.992188 42.921875 52 43 52 C 43.550781 52 44 51.550781 44 51 C 44 50.449219 43.550781 50 43 50 C 42.449219 50 42 50.449219 42 51 C 42 51.210938 42.066406 51.417969 42.191406 51.589844 C 41.660156 51.226563 41.144531 50.84375 40.667969 50.414063 L 40 49.8125 L 39.332031 50.414063 C 36.851563 52.640625 33.59375 54 30 54 C 22.257813 54 16 47.742188 16 40 C 16 32.257813 22.257813 26 30 26 Z M 46 29 C 45.449219 29 45 29.449219 45 30 C 45 30.550781 45.449219 31 46 31 C 46.550781 31 47 30.550781 47 30 C 47 29.449219 46.550781 29 46 29 Z M 52 29 C 51.449219 29 51 29.449219 51 30 C 51 30.550781 51.449219 31 52 31 C 52.550781 31 53 30.550781 53 30 C 53 29.449219 52.550781 29 52 29 Z M 58 29 C 57.449219 29 57 29.449219 57 30 C 57 30.550781 57.449219 31 58 31 C 58.550781 31 59 30.550781 59 30 C 59 29.449219 58.550781 29 58 29 Z M 37 32 C 36.449219 32 36 32.449219 36 33 C 36 33.550781 36.449219 34 37 34 C 37.550781 34 38 33.550781 38 33 C 38 32.449219 37.550781 32 37 32 Z M 43 32 C 42.449219 32 42 32.449219 42 33 C 42 33.550781 42.449219 34 43 34 C 43.550781 34 44 33.550781 44 33 C 44 32.449219 43.550781 32 43 32 Z M 49 32 C 48.449219 32 48 32.449219 48 33 C 48 33.550781 48.449219 34 49 34 C 49.550781 34 50 33.550781 50 33 C 50 32.449219 49.550781 32 49 32 Z M 55 32 C 54.449219 32 54 32.449219 54 33 C 54 33.550781 54.449219 34 55 34 C 55.550781 34 56 33.550781 56 33 C 56 32.449219 55.550781 32 55 32 Z M 40 35 C 39.449219 35 39 35.449219 39 36 C 39 36.550781 39.449219 37 40 37 C 40.550781 37 41 36.550781 41 36 C 41 35.449219 40.550781 35 40 35 Z M 46 35 C 45.449219 35 45 35.449219 45 36 C 45 36.550781 45.449219 37 46 37 C 46.550781 37 47 36.550781 47 36 C 47 35.449219 46.550781 35 46 35 Z M 52 35 C 51.449219 35 51 35.449219 51 36 C 51 36.550781 51.449219 37 52 37 C 52.550781 37 53 36.550781 53 36 C 53 35.449219 52.550781 35 52 35 Z M 58 35 C 57.449219 35 57 35.449219 57 36 C 57 36.550781 57.449219 37 58 37 C 58.550781 37 59 36.550781 59 36 C 59 35.449219 58.550781 35 58 35 Z M 37 38 C 36.449219 38 36 38.449219 36 39 C 36 39.550781 36.449219 40 37 40 C 37.550781 40 38 39.550781 38 39 C 38 38.449219 37.550781 38 37 38 Z M 43 38 C 42.449219 38 42 38.449219 42 39 C 42 39.550781 42.449219 40 43 40 C 43.550781 40 44 39.550781 44 39 C 44 38.449219 43.550781 38 43 38 Z M 49 38 C 48.449219 38 48 38.449219 48 39 C 48 39.550781 48.449219 40 49 40 C 49.550781 40 50 39.550781 50 39 C 50 38.449219 49.550781 38 49 38 Z M 55 38 C 54.449219 38 54 38.449219 54 39 C 54 39.550781 54.449219 40 55 40 C 55.550781 40 56 39.550781 56 39 C 56 38.449219 55.550781 38 55 38 Z M 61 38 C 60.449219 38 60 38.449219 60 39 C 60 39.550781 60.449219 40 61 40 C 61.550781 40 62 39.550781 62 39 C 62 38.449219 61.550781 38 61 38 Z M 40 41 C 39.449219 41 39 41.449219 39 42 C 39 42.550781 39.449219 43 40 43 C 40.550781 43 41 42.550781 41 42 C 41 41.449219 40.550781 41 40 41 Z M 46 41 C 45.449219 41 45 41.449219 45 42 C 45 42.550781 45.449219 43 46 43 C 46.550781 43 47 42.550781 47 42 C 47 41.449219 46.550781 41 46 41 Z M 52 41 C 51.449219 41 51 41.449219 51 42 C 51 42.550781 51.449219 43 52 43 C 52.550781 43 53 42.550781 53 42 C 53 41.449219 52.550781 41 52 41 Z M 58 41 C 57.449219 41 57 41.449219 57 42 C 57 42.550781 57.449219 43 58 43 C 58.550781 43 59 42.550781 59 42 C 59 41.449219 58.550781 41 58 41 Z M 37 44 C 36.449219 44 36 44.449219 36 45 C 36 45.550781 36.449219 46 37 46 C 37.550781 46 38 45.550781 38 45 C 38 44.449219 37.550781 44 37 44 Z M 43 44 C 42.449219 44 42 44.449219 42 45 C 42 45.550781 42.449219 46 43 46 C 43.550781 46 44 45.550781 44 45 C 44 44.449219 43.550781 44 43 44 Z M 49 44 C 48.449219 44 48 44.449219 48 45 C 48 45.550781 48.449219 46 49 46 C 49.550781 46 50 45.550781 50 45 C 50 44.449219 49.550781 44 49 44 Z M 55 44 C 54.449219 44 54 44.449219 54 45 C 54 45.550781 54.449219 46 55 46 C 55.550781 46 56 45.550781 56 45 C 56 44.449219 55.550781 44 55 44 Z M 61 44 C 60.449219 44 60 44.449219 60 45 C 60 45.550781 60.449219 46 61 46 C 61.550781 46 62 45.550781 62 45 C 62 44.449219 61.550781 44 61 44 Z M 40 47 C 39.449219 47 39 47.449219 39 48 C 39 48.550781 39.449219 49 40 49 C 40.550781 49 41 48.550781 41 48 C 41 47.449219 40.550781 47 40 47 Z M 46 47 C 45.449219 47 45 47.449219 45 48 C 45 48.550781 45.449219 49 46 49 C 46.550781 49 47 48.550781 47 48 C 47 47.449219 46.550781 47 46 47 Z M 52 47 C 51.449219 47 51 47.449219 51 48 C 51 48.550781 51.449219 49 52 49 C 52.550781 49 53 48.550781 53 48 C 53 47.449219 52.550781 47 52 47 Z M 58 47 C 57.449219 47 57 47.449219 57 48 C 57 48.550781 57.449219 49 58 49 C 58.550781 49 59 48.550781 59 48 C 59 47.449219 58.550781 47 58 47 Z M 49 50 C 48.449219 50 48 50.449219 48 51 C 48 51.550781 48.449219 52 49 52 C 49.550781 52 50 51.550781 50 51 C 50 50.449219 49.550781 50 49 50 Z M 55 50 C 54.449219 50 54 50.449219 54 51 C 54 51.550781 54.449219 52 55 52 C 55.550781 52 56 51.550781 56 51 C 56 50.449219 55.550781 50 55 50 Z"/></svg>